<svg xmlns="http://www.w3.org/2000/svg" viewBox="0 0 210.473 76.62"><title>NL-167-M1-Bonavita-Figure-1_Boream USE HALF WIDTH</title><path d="M.108,7.468V6.793H.891V6.1A1.09,1.09,0,0,1,1.22,5.24a1.4,1.4,0,0,1,.958-.292,1.916,1.916,0,0,1,.247.018,1.333,1.333,0,0,1,.248.054v.666a.97.97,0,0,0-.216-.05,1.946,1.946,0,0,0-.216-.014.74.74,0,0,0-.432.108.476.476,0,0,0-.153.414v.648h.9v.675h-.9v3.978H.891V7.468Z" fill="#007abf"/><path d="M6.534,11.149a2.112,2.112,0,0,1-1.314.4,2.389,2.389,0,0,1-.968-.18,1.911,1.911,0,0,1-.688-.5,2.137,2.137,0,0,1-.418-.774,3.709,3.709,0,0,1-.157-.981,2.8,2.8,0,0,1,.162-.972A2.337,2.337,0,0,1,3.6,7.369a2.063,2.063,0,0,1,.693-.5,2.115,2.115,0,0,1,.878-.18,1.91,1.91,0,0,1,1.03.257,2.046,2.046,0,0,1,.657.652,2.591,2.591,0,0,1,.342.864,3.718,3.718,0,0,1,.077.891H3.8a1.844,1.844,0,0,0,.072.581,1.31,1.31,0,0,0,.261.486,1.292,1.292,0,0,0,.459.337,1.586,1.586,0,0,0,.657.126,1.324,1.324,0,0,0,.8-.225,1.087,1.087,0,0,0,.41-.684h.756A1.862,1.862,0,0,1,6.534,11.149ZM6.35,8.161a1.291,1.291,0,0,0-.693-.7,1.314,1.314,0,0,0-.527-.1,1.333,1.333,0,0,0-.535.1,1.236,1.236,0,0,0-.41.283,1.352,1.352,0,0,0-.27.419,1.6,1.6,0,0,0-.117.508H6.471A1.575,1.575,0,0,0,6.35,8.161Z" fill="#007abf"/><path d="M12.195,11.428a1.083,1.083,0,0,1-.549.117.66.66,0,0,1-.473-.167A.725.725,0,0,1,11,10.834a1.83,1.83,0,0,1-.733.544,2.429,2.429,0,0,1-.9.167,2.4,2.4,0,0,1-.6-.072,1.383,1.383,0,0,1-.491-.225,1.075,1.075,0,0,1-.329-.4,1.346,1.346,0,0,1-.121-.6A1.371,1.371,0,0,1,7.956,9.6a1.18,1.18,0,0,1,.355-.409,1.634,1.634,0,0,1,.5-.239q.283-.081.581-.135.315-.063.6-.095a3.329,3.329,0,0,0,.5-.09.829.829,0,0,0,.342-.171.418.418,0,0,0,.126-.329.763.763,0,0,0-.094-.4.65.65,0,0,0-.243-.234,1,1,0,0,0-.333-.108,2.506,2.506,0,0,0-.364-.027,1.617,1.617,0,0,0-.81.185.783.783,0,0,0-.351.7H8a1.657,1.657,0,0,1,.18-.729,1.365,1.365,0,0,1,.432-.481,1.812,1.812,0,0,1,.616-.266,3.272,3.272,0,0,1,.743-.081,4.317,4.317,0,0,1,.625.045,1.634,1.634,0,0,1,.563.184,1.075,1.075,0,0,1,.4.391,1.247,1.247,0,0,1,.153.655v2.389a1.786,1.786,0,0,0,.031.4c.021.084.091.125.211.125a.934.934,0,0,0,.234-.036ZM10.953,9.043a.96.96,0,0,1-.378.157q-.234.049-.491.081t-.518.072a1.891,1.891,0,0,0-.468.13.848.848,0,0,0-.337.255.711.711,0,0,0-.131.452.621.621,0,0,0,.077.318.635.635,0,0,0,.2.21.83.83,0,0,0,.283.116,1.579,1.579,0,0,0,.342.036,1.828,1.828,0,0,0,.648-.1,1.373,1.373,0,0,0,.441-.26,1.034,1.034,0,0,0,.252-.34.857.857,0,0,0,.081-.345Z" fill="#007abf"/><path d="M14.895,6.793v.675h-.927v2.889a.827.827,0,0,0,.022.216.219.219,0,0,0,.085.126.371.371,0,0,0,.175.059,2.6,2.6,0,0,0,.292.014h.351v.675H14.31a2.756,2.756,0,0,1-.508-.041.748.748,0,0,1-.342-.148.635.635,0,0,1-.193-.306,1.766,1.766,0,0,1-.063-.522V7.468h-.792V6.793H13.2V5.4h.765v1.4Z" fill="#007abf"/><path d="M18.873,11.446v-.738h-.018a1.565,1.565,0,0,1-.621.634,1.856,1.856,0,0,1-.891.2,2.084,2.084,0,0,1-.765-.122,1.216,1.216,0,0,1-.5-.347,1.306,1.306,0,0,1-.266-.535,2.891,2.891,0,0,1-.076-.688V6.793h.765v3.15a.924.924,0,0,0,.252.684.937.937,0,0,0,.693.252,1.563,1.563,0,0,0,.607-.108,1.142,1.142,0,0,0,.427-.306A1.317,1.317,0,0,0,18.742,10a1.9,1.9,0,0,0,.085-.581V6.793h.765v4.653Z" fill="#007abf"/><path d="M21.438,6.793v.981h.018a2.071,2.071,0,0,1,.684-.837,1.72,1.72,0,0,1,1.026-.252v.81a2.166,2.166,0,0,0-.783.126,1.238,1.238,0,0,0-.522.369,1.534,1.534,0,0,0-.288.589,3.183,3.183,0,0,0-.09.8v2.07h-.765V6.793Z" fill="#007abf"/><path d="M26.874,11.149a2.112,2.112,0,0,1-1.314.4,2.389,2.389,0,0,1-.968-.18,1.911,1.911,0,0,1-.688-.5,2.137,2.137,0,0,1-.418-.774,3.709,3.709,0,0,1-.157-.981,2.8,2.8,0,0,1,.162-.972,2.337,2.337,0,0,1,.455-.765,2.063,2.063,0,0,1,.693-.5,2.115,2.115,0,0,1,.878-.18,1.91,1.91,0,0,1,1.03.257,2.046,2.046,0,0,1,.657.652,2.591,2.591,0,0,1,.342.864,3.718,3.718,0,0,1,.077.891H24.137a1.844,1.844,0,0,0,.072.581,1.31,1.31,0,0,0,.261.486,1.292,1.292,0,0,0,.459.337,1.586,1.586,0,0,0,.657.126,1.324,1.324,0,0,0,.8-.225,1.087,1.087,0,0,0,.41-.684h.756A1.862,1.862,0,0,1,26.874,11.149Zm-.185-2.988a1.291,1.291,0,0,0-.693-.7,1.314,1.314,0,0,0-.527-.1,1.333,1.333,0,0,0-.535.1,1.236,1.236,0,0,0-.41.283,1.352,1.352,0,0,0-.27.419,1.6,1.6,0,0,0-.117.508h2.673A1.575,1.575,0,0,0,26.689,8.161Z" fill="#007abf"/><path d="M29,10.407a.81.81,0,0,0,.283.279,1.276,1.276,0,0,0,.4.149,2.282,2.282,0,0,0,.455.045,2.788,2.788,0,0,0,.378-.027,1.382,1.382,0,0,0,.365-.1.684.684,0,0,0,.274-.211.566.566,0,0,0,.108-.355.51.51,0,0,0-.225-.45,1.911,1.911,0,0,0-.562-.248q-.337-.094-.733-.171A3.77,3.77,0,0,1,29,9.1a1.514,1.514,0,0,1-.562-.391,1.018,1.018,0,0,1-.225-.7,1.115,1.115,0,0,1,.158-.6,1.292,1.292,0,0,1,.4-.41,1.88,1.88,0,0,1,.558-.234,2.582,2.582,0,0,1,.617-.077,3.682,3.682,0,0,1,.729.068,1.689,1.689,0,0,1,.589.234,1.207,1.207,0,0,1,.409.45,1.708,1.708,0,0,1,.18.706h-.765a.733.733,0,0,0-.369-.612,1.142,1.142,0,0,0-.338-.13,1.742,1.742,0,0,0-.373-.041,2.269,2.269,0,0,0-.347.027,1.166,1.166,0,0,0-.319.095.645.645,0,0,0-.234.18.455.455,0,0,0-.09.292.43.43,0,0,0,.14.329,1.115,1.115,0,0,0,.355.216,3.1,3.1,0,0,0,.486.144q.27.059.54.122a5.743,5.743,0,0,1,.563.153,1.831,1.831,0,0,1,.486.238,1.166,1.166,0,0,1,.342.374,1.1,1.1,0,0,1,.13.558,1.3,1.3,0,0,1-.175.7,1.372,1.372,0,0,1-.459.45,1.924,1.924,0,0,1-.639.239,3.79,3.79,0,0,1-.707.067,3.289,3.289,0,0,1-.738-.081,1.808,1.808,0,0,1-.621-.266,1.35,1.35,0,0,1-.432-.486,1.689,1.689,0,0,1-.18-.733h.765A.857.857,0,0,0,29,10.407Z" fill="#007abf"/><path d="M13.662,22.427a.81.81,0,0,0,.283.279,1.276,1.276,0,0,0,.4.149,2.282,2.282,0,0,0,.455.045,2.788,2.788,0,0,0,.378-.027,1.382,1.382,0,0,0,.365-.1.684.684,0,0,0,.274-.211.566.566,0,0,0,.108-.355.51.51,0,0,0-.225-.45,1.911,1.911,0,0,0-.562-.248q-.337-.094-.733-.171a3.77,3.77,0,0,1-.733-.216,1.514,1.514,0,0,1-.562-.391,1.018,1.018,0,0,1-.225-.7,1.115,1.115,0,0,1,.158-.6,1.292,1.292,0,0,1,.4-.41A1.88,1.88,0,0,1,14,18.782a2.582,2.582,0,0,1,.617-.077,3.682,3.682,0,0,1,.729.068,1.689,1.689,0,0,1,.589.234,1.207,1.207,0,0,1,.409.45,1.708,1.708,0,0,1,.18.706h-.765a.733.733,0,0,0-.369-.612,1.142,1.142,0,0,0-.338-.13,1.742,1.742,0,0,0-.373-.041,2.269,2.269,0,0,0-.347.027,1.166,1.166,0,0,0-.319.095.645.645,0,0,0-.234.18.455.455,0,0,0-.09.292.43.43,0,0,0,.14.329,1.115,1.115,0,0,0,.355.216,3.1,3.1,0,0,0,.486.144q.27.059.54.122a5.743,5.743,0,0,1,.563.153,1.831,1.831,0,0,1,.486.238,1.166,1.166,0,0,1,.342.374,1.1,1.1,0,0,1,.13.558,1.3,1.3,0,0,1-.175.7,1.372,1.372,0,0,1-.459.45,1.924,1.924,0,0,1-.639.239,3.79,3.79,0,0,1-.707.067,3.289,3.289,0,0,1-.738-.081,1.808,1.808,0,0,1-.621-.266,1.35,1.35,0,0,1-.432-.486A1.689,1.689,0,0,1,12.78,22h.765A.857.857,0,0,0,13.662,22.427Z" fill="#1d1d1b"/><path d="M19.566,18.813v.675h-.927v2.889a.827.827,0,0,0,.022.216.219.219,0,0,0,.085.126.371.371,0,0,0,.175.059,2.6,2.6,0,0,0,.292.014h.351v.675h-.585a2.756,2.756,0,0,1-.508-.041.748.748,0,0,1-.342-.148.635.635,0,0,1-.193-.306,1.766,1.766,0,0,1-.063-.522V19.488h-.792v-.675h.792v-1.4h.765v1.4Z" fill="#1d1d1b"/><path d="M24.534,23.448a1.083,1.083,0,0,1-.549.117.66.66,0,0,1-.473-.167.725.725,0,0,1-.175-.544,1.83,1.83,0,0,1-.733.544,2.429,2.429,0,0,1-.9.167,2.4,2.4,0,0,1-.6-.072,1.383,1.383,0,0,1-.491-.225,1.075,1.075,0,0,1-.329-.4,1.346,1.346,0,0,1-.121-.6,1.371,1.371,0,0,1,.135-.648,1.18,1.18,0,0,1,.355-.409,1.634,1.634,0,0,1,.5-.239q.283-.081.581-.135.315-.063.6-.095a3.329,3.329,0,0,0,.5-.09.829.829,0,0,0,.342-.171.418.418,0,0,0,.126-.329.763.763,0,0,0-.094-.4.65.65,0,0,0-.243-.234,1,1,0,0,0-.333-.108,2.506,2.506,0,0,0-.364-.027,1.617,1.617,0,0,0-.81.185.783.783,0,0,0-.351.7H20.34a1.657,1.657,0,0,1,.18-.729,1.365,1.365,0,0,1,.432-.481,1.812,1.812,0,0,1,.616-.266,3.272,3.272,0,0,1,.743-.081,4.317,4.317,0,0,1,.625.045,1.634,1.634,0,0,1,.563.184,1.075,1.075,0,0,1,.4.391,1.247,1.247,0,0,1,.153.655v2.389a1.786,1.786,0,0,0,.031.4c.021.084.091.125.211.125a.934.934,0,0,0,.234-.036Zm-1.242-2.385a.96.96,0,0,1-.378.157q-.234.049-.491.081t-.518.072a1.891,1.891,0,0,0-.468.13.848.848,0,0,0-.337.255.711.711,0,0,0-.131.452.621.621,0,0,0,.077.318.635.635,0,0,0,.2.21.83.83,0,0,0,.283.116,1.579,1.579,0,0,0,.342.036,1.828,1.828,0,0,0,.648-.1,1.373,1.373,0,0,0,.441-.26,1.034,1.034,0,0,0,.252-.34.857.857,0,0,0,.081-.345Z" fill="#1d1d1b"/><path d="M27.234,18.813v.675h-.927v2.889a.827.827,0,0,0,.022.216.219.219,0,0,0,.085.126.371.371,0,0,0,.175.059,2.6,2.6,0,0,0,.292.014h.351v.675h-.585a2.756,2.756,0,0,1-.508-.041.748.748,0,0,1-.342-.148.635.635,0,0,1-.193-.306,1.766,1.766,0,0,1-.063-.522V19.488H24.75v-.675h.792v-1.4h.765v1.4Z" fill="#1d1d1b"/><path d="M31.374,23.169a2.112,2.112,0,0,1-1.314.4,2.389,2.389,0,0,1-.968-.18,1.911,1.911,0,0,1-.688-.5,2.137,2.137,0,0,1-.418-.774,3.709,3.709,0,0,1-.157-.981,2.8,2.8,0,0,1,.162-.972,2.337,2.337,0,0,1,.455-.765,2.063,2.063,0,0,1,.693-.5,2.115,2.115,0,0,1,.878-.18,1.91,1.91,0,0,1,1.03.257,2.046,2.046,0,0,1,.657.652,2.591,2.591,0,0,1,.342.864,3.718,3.718,0,0,1,.077.891H28.637a1.844,1.844,0,0,0,.072.581,1.31,1.31,0,0,0,.261.486,1.292,1.292,0,0,0,.459.337,1.586,1.586,0,0,0,.657.126,1.324,1.324,0,0,0,.8-.225,1.087,1.087,0,0,0,.41-.684h.756A1.862,1.862,0,0,1,31.374,23.169Zm-.185-2.988a1.291,1.291,0,0,0-.693-.7,1.314,1.314,0,0,0-.527-.1,1.333,1.333,0,0,0-.535.1,1.236,1.236,0,0,0-.41.283,1.352,1.352,0,0,0-.27.419,1.6,1.6,0,0,0-.117.508h2.673A1.575,1.575,0,0,0,31.189,20.181Z" fill="#1d1d1b"/><path d="M122.671,53.844V60.27h-.765V53.844Z" fill="#007abf"/><path d="M127.981,60.252a1.083,1.083,0,0,1-.549.117.66.66,0,0,1-.473-.167.725.725,0,0,1-.175-.544,1.83,1.83,0,0,1-.733.544,2.429,2.429,0,0,1-.9.167,2.4,2.4,0,0,1-.6-.072,1.383,1.383,0,0,1-.491-.225,1.075,1.075,0,0,1-.329-.4,1.346,1.346,0,0,1-.121-.6,1.371,1.371,0,0,1,.135-.648,1.18,1.18,0,0,1,.355-.409,1.634,1.634,0,0,1,.5-.239q.283-.081.581-.135.315-.063.6-.095a3.329,3.329,0,0,0,.5-.09.829.829,0,0,0,.342-.171.418.418,0,0,0,.126-.329.763.763,0,0,0-.094-.4.65.65,0,0,0-.243-.234,1,1,0,0,0-.333-.108,2.506,2.506,0,0,0-.364-.027,1.617,1.617,0,0,0-.81.185.783.783,0,0,0-.351.7h-.765a1.657,1.657,0,0,1,.18-.729,1.365,1.365,0,0,1,.432-.481,1.812,1.812,0,0,1,.616-.266,3.272,3.272,0,0,1,.743-.081,4.317,4.317,0,0,1,.625.045,1.634,1.634,0,0,1,.563.184,1.075,1.075,0,0,1,.4.391,1.247,1.247,0,0,1,.153.655v2.389a1.786,1.786,0,0,0,.031.4c.021.084.091.125.211.125a.934.934,0,0,0,.234-.036Zm-1.242-2.385a.96.96,0,0,1-.378.157q-.234.049-.491.081t-.518.072a1.891,1.891,0,0,0-.468.13.848.848,0,0,0-.337.255.711.711,0,0,0-.131.452.621.621,0,0,0,.077.318.635.635,0,0,0,.2.21.83.83,0,0,0,.283.116,1.579,1.579,0,0,0,.342.036,1.828,1.828,0,0,0,.648-.1,1.373,1.373,0,0,0,.441-.26,1.034,1.034,0,0,0,.252-.34.857.857,0,0,0,.081-.345Z" fill="#007abf"/><path d="M129.484,53.844v2.4h.018a1.146,1.146,0,0,1,.594-.562,2.214,2.214,0,0,1,.891-.176,2.1,2.1,0,0,1,.94.2,1.912,1.912,0,0,1,.666.536,2.362,2.362,0,0,1,.4.778,3.185,3.185,0,0,1,.135.936,3.285,3.285,0,0,1-.131.936,2.2,2.2,0,0,1-.4.77,1.861,1.861,0,0,1-.666.518,2.16,2.16,0,0,1-.931.189,2.311,2.311,0,0,1-.383-.036,2.108,2.108,0,0,1-.418-.117,1.63,1.63,0,0,1-.392-.22,1.224,1.224,0,0,1-.31-.347h-.018v.621h-.765V53.844Zm2.75,3.424a1.714,1.714,0,0,0-.261-.554,1.283,1.283,0,0,0-.45-.387,1.366,1.366,0,0,0-.644-.144,1.262,1.262,0,0,0-1.1.553,1.67,1.67,0,0,0-.248.563,2.722,2.722,0,0,0,0,1.3,1.64,1.64,0,0,0,.257.563,1.306,1.306,0,0,0,.454.392,1.425,1.425,0,0,0,.675.148,1.3,1.3,0,0,0,.662-.153,1.226,1.226,0,0,0,.427-.4,1.758,1.758,0,0,0,.234-.576,3.066,3.066,0,0,0,.072-.666A2.393,2.393,0,0,0,132.233,57.269Z" fill="#007abf"/><path d="M137.323,59.973a2.112,2.112,0,0,1-1.314.4,2.389,2.389,0,0,1-.968-.18,1.911,1.911,0,0,1-.688-.5,2.137,2.137,0,0,1-.418-.774,3.709,3.709,0,0,1-.157-.981,2.8,2.8,0,0,1,.162-.972,2.337,2.337,0,0,1,.455-.765,2.063,2.063,0,0,1,.693-.5,2.115,2.115,0,0,1,.878-.18,1.91,1.91,0,0,1,1.03.257,2.046,2.046,0,0,1,.657.652,2.591,2.591,0,0,1,.342.864,3.718,3.718,0,0,1,.077.891h-3.483a1.844,1.844,0,0,0,.072.581,1.31,1.31,0,0,0,.261.486,1.292,1.292,0,0,0,.459.337,1.586,1.586,0,0,0,.657.126,1.324,1.324,0,0,0,.8-.225,1.087,1.087,0,0,0,.41-.684H138A1.862,1.862,0,0,1,137.323,59.973Zm-.185-2.988a1.291,1.291,0,0,0-.693-.7,1.314,1.314,0,0,0-.527-.1,1.333,1.333,0,0,0-.535.1,1.236,1.236,0,0,0-.41.283,1.352,1.352,0,0,0-.27.419,1.6,1.6,0,0,0-.117.508h2.673A1.575,1.575,0,0,0,137.138,56.985Z" fill="#007abf"/><path d="M139.672,53.844V60.27h-.765V53.844Z" fill="#007abf"/><path d="M141.445,59.231a.81.81,0,0,0,.283.279,1.276,1.276,0,0,0,.4.149,2.282,2.282,0,0,0,.455.045,2.788,2.788,0,0,0,.378-.027,1.382,1.382,0,0,0,.365-.1.684.684,0,0,0,.274-.211.566.566,0,0,0,.108-.355.51.51,0,0,0-.225-.45,1.911,1.911,0,0,0-.562-.248q-.337-.094-.733-.171a3.77,3.77,0,0,1-.733-.216,1.514,1.514,0,0,1-.562-.391,1.018,1.018,0,0,1-.225-.7,1.115,1.115,0,0,1,.158-.6,1.292,1.292,0,0,1,.4-.41,1.88,1.88,0,0,1,.558-.234,2.582,2.582,0,0,1,.617-.077,3.682,3.682,0,0,1,.729.068,1.689,1.689,0,0,1,.589.234,1.207,1.207,0,0,1,.409.45,1.708,1.708,0,0,1,.18.706h-.765a.733.733,0,0,0-.369-.612,1.142,1.142,0,0,0-.338-.13,1.742,1.742,0,0,0-.373-.041,2.269,2.269,0,0,0-.347.027,1.166,1.166,0,0,0-.319.095.645.645,0,0,0-.234.18.455.455,0,0,0-.09.292.43.43,0,0,0,.14.329,1.115,1.115,0,0,0,.355.216,3.1,3.1,0,0,0,.486.144q.27.059.54.122a5.743,5.743,0,0,1,.563.153,1.831,1.831,0,0,1,.486.238,1.166,1.166,0,0,1,.342.374,1.1,1.1,0,0,1,.13.558,1.3,1.3,0,0,1-.175.7,1.372,1.372,0,0,1-.459.45,1.924,1.924,0,0,1-.639.239,3.79,3.79,0,0,1-.707.067,3.289,3.289,0,0,1-.738-.081,1.808,1.808,0,0,1-.621-.266,1.35,1.35,0,0,1-.432-.486,1.689,1.689,0,0,1-.18-.733h.765A.857.857,0,0,0,141.445,59.231Z" fill="#007abf"/><path d="M121.753,69.011a2.177,2.177,0,0,1,.432-.774,2.038,2.038,0,0,1,.711-.517,2.6,2.6,0,0,1,1.949,0,2.053,2.053,0,0,1,.707.517,2.177,2.177,0,0,1,.432.774,3.106,3.106,0,0,1,.144.958,3.063,3.063,0,0,1-.144.954,2.177,2.177,0,0,1-.432.77,2,2,0,0,1-.707.513,2.664,2.664,0,0,1-1.949,0,1.987,1.987,0,0,1-.711-.513,2.177,2.177,0,0,1-.432-.77,3.063,3.063,0,0,1-.144-.954A3.106,3.106,0,0,1,121.753,69.011Zm.779,1.71a1.564,1.564,0,0,0,.311.549,1.338,1.338,0,0,0,.463.337,1.409,1.409,0,0,0,1.125,0,1.343,1.343,0,0,0,.463-.337,1.579,1.579,0,0,0,.311-.549,2.561,2.561,0,0,0,0-1.5,1.628,1.628,0,0,0-.311-.553,1.326,1.326,0,0,0-.463-.342,1.414,1.414,0,0,0-1.125,0,1.322,1.322,0,0,0-.463.342,1.612,1.612,0,0,0-.311.553,2.561,2.561,0,0,0,0,1.5Z" fill="#1d1d1b"/><path d="M127.819,65.865v2.4h.018a1.146,1.146,0,0,1,.594-.562,2.214,2.214,0,0,1,.891-.176,2.1,2.1,0,0,1,.94.2,1.912,1.912,0,0,1,.666.536,2.362,2.362,0,0,1,.4.778,3.185,3.185,0,0,1,.135.936,3.285,3.285,0,0,1-.131.936,2.2,2.2,0,0,1-.4.77,1.861,1.861,0,0,1-.666.518,2.16,2.16,0,0,1-.931.189,2.311,2.311,0,0,1-.383-.036,2.108,2.108,0,0,1-.418-.117,1.63,1.63,0,0,1-.392-.22,1.224,1.224,0,0,1-.31-.347h-.018v.621h-.765V65.865Zm2.75,3.424a1.714,1.714,0,0,0-.261-.554,1.283,1.283,0,0,0-.45-.387,1.366,1.366,0,0,0-.644-.144,1.262,1.262,0,0,0-1.1.553,1.67,1.67,0,0,0-.248.563,2.722,2.722,0,0,0,0,1.3,1.64,1.64,0,0,0,.257.563,1.306,1.306,0,0,0,.454.392,1.425,1.425,0,0,0,.675.148,1.3,1.3,0,0,0,.662-.153,1.226,1.226,0,0,0,.427-.4,1.758,1.758,0,0,0,.234-.576,3.066,3.066,0,0,0,.072-.666A2.393,2.393,0,0,0,130.569,69.289Z" fill="#1d1d1b"/><path d="M132.949,71.251a.81.81,0,0,0,.283.279,1.276,1.276,0,0,0,.4.149,2.282,2.282,0,0,0,.455.045,2.788,2.788,0,0,0,.378-.027,1.382,1.382,0,0,0,.365-.1.684.684,0,0,0,.274-.211.566.566,0,0,0,.108-.355.51.51,0,0,0-.225-.45,1.911,1.911,0,0,0-.562-.248q-.337-.094-.733-.171a3.77,3.77,0,0,1-.733-.216,1.514,1.514,0,0,1-.562-.391,1.018,1.018,0,0,1-.225-.7,1.115,1.115,0,0,1,.158-.6,1.292,1.292,0,0,1,.4-.41,1.88,1.88,0,0,1,.558-.234,2.582,2.582,0,0,1,.617-.077,3.682,3.682,0,0,1,.729.068,1.689,1.689,0,0,1,.589.234,1.207,1.207,0,0,1,.409.45,1.708,1.708,0,0,1,.18.706h-.765a.733.733,0,0,0-.369-.612,1.142,1.142,0,0,0-.338-.13,1.742,1.742,0,0,0-.373-.041,2.269,2.269,0,0,0-.347.027,1.166,1.166,0,0,0-.319.095.645.645,0,0,0-.234.18.455.455,0,0,0-.09.292.43.43,0,0,0,.14.329,1.115,1.115,0,0,0,.355.216,3.1,3.1,0,0,0,.486.144q.27.059.54.122a5.743,5.743,0,0,1,.563.153,1.831,1.831,0,0,1,.486.238,1.166,1.166,0,0,1,.342.374,1.1,1.1,0,0,1,.13.558,1.3,1.3,0,0,1-.175.7,1.372,1.372,0,0,1-.459.45,1.924,1.924,0,0,1-.639.239,3.79,3.79,0,0,1-.707.067,3.289,3.289,0,0,1-.738-.081,1.808,1.808,0,0,1-.621-.266,1.35,1.35,0,0,1-.432-.486,1.689,1.689,0,0,1-.18-.733h.765A.857.857,0,0,0,132.949,71.251Z" fill="#1d1d1b"/><path d="M140.158,71.994a2.112,2.112,0,0,1-1.314.4,2.389,2.389,0,0,1-.968-.18,1.911,1.911,0,0,1-.688-.5,2.137,2.137,0,0,1-.418-.774,3.709,3.709,0,0,1-.157-.981,2.8,2.8,0,0,1,.162-.972,2.337,2.337,0,0,1,.455-.765,2.063,2.063,0,0,1,.693-.5,2.115,2.115,0,0,1,.878-.18,1.91,1.91,0,0,1,1.03.257,2.046,2.046,0,0,1,.657.652,2.591,2.591,0,0,1,.342.864,3.718,3.718,0,0,1,.077.891h-3.483a1.844,1.844,0,0,0,.072.581,1.31,1.31,0,0,0,.261.486,1.292,1.292,0,0,0,.459.337,1.586,1.586,0,0,0,.657.126,1.324,1.324,0,0,0,.8-.225,1.087,1.087,0,0,0,.41-.684h.756A1.862,1.862,0,0,1,140.158,71.994Zm-.185-2.988a1.291,1.291,0,0,0-.693-.7,1.314,1.314,0,0,0-.527-.1,1.333,1.333,0,0,0-.535.1,1.236,1.236,0,0,0-.41.283,1.352,1.352,0,0,0-.27.419,1.6,1.6,0,0,0-.117.508H140.1A1.575,1.575,0,0,0,139.974,69.006Z" fill="#1d1d1b"/><path d="M142.39,67.638v.981h.018a2.071,2.071,0,0,1,.684-.837,1.72,1.72,0,0,1,1.026-.252v.81a2.166,2.166,0,0,0-.783.126,1.238,1.238,0,0,0-.522.369,1.534,1.534,0,0,0-.288.589,3.183,3.183,0,0,0-.09.8v2.07h-.765V67.638Z" fill="#1d1d1b"/><path d="M145.972,72.291l-1.728-4.653h.855l1.305,3.879h.018l1.269-3.879h.8l-1.7,4.653Z" fill="#1d1d1b"/><path d="M153.316,72.273a1.083,1.083,0,0,1-.549.117.66.66,0,0,1-.473-.167.725.725,0,0,1-.175-.544,1.83,1.83,0,0,1-.733.544,2.429,2.429,0,0,1-.9.167,2.4,2.4,0,0,1-.6-.072,1.383,1.383,0,0,1-.491-.225,1.075,1.075,0,0,1-.329-.4,1.346,1.346,0,0,1-.121-.6,1.371,1.371,0,0,1,.135-.648,1.18,1.18,0,0,1,.355-.409,1.634,1.634,0,0,1,.5-.239q.283-.081.581-.135.315-.063.6-.095a3.329,3.329,0,0,0,.5-.09.829.829,0,0,0,.342-.171.418.418,0,0,0,.126-.329.763.763,0,0,0-.094-.4.65.65,0,0,0-.243-.234,1,1,0,0,0-.333-.108,2.506,2.506,0,0,0-.364-.027,1.617,1.617,0,0,0-.81.185.783.783,0,0,0-.351.7h-.765a1.657,1.657,0,0,1,.18-.729,1.365,1.365,0,0,1,.432-.481,1.812,1.812,0,0,1,.616-.266,3.272,3.272,0,0,1,.743-.081,4.317,4.317,0,0,1,.625.045,1.634,1.634,0,0,1,.563.184,1.075,1.075,0,0,1,.4.391,1.247,1.247,0,0,1,.153.655v2.389a1.786,1.786,0,0,0,.031.4c.021.084.091.125.211.125a.934.934,0,0,0,.234-.036Zm-1.242-2.385a.96.96,0,0,1-.378.157q-.234.049-.491.081t-.518.072a1.891,1.891,0,0,0-.468.13.848.848,0,0,0-.337.255.711.711,0,0,0-.131.452.621.621,0,0,0,.077.318.635.635,0,0,0,.2.21.83.83,0,0,0,.283.116,1.579,1.579,0,0,0,.342.036,1.828,1.828,0,0,0,.648-.1,1.373,1.373,0,0,0,.441-.26,1.034,1.034,0,0,0,.252-.34.857.857,0,0,0,.081-.345Z" fill="#1d1d1b"/><path d="M156.016,67.638v.675h-.927V71.2a.827.827,0,0,0,.022.216.219.219,0,0,0,.085.126.371.371,0,0,0,.175.059,2.6,2.6,0,0,0,.292.014h.351v.675h-.585a2.756,2.756,0,0,1-.508-.041.748.748,0,0,1-.342-.148.635.635,0,0,1-.193-.306,1.766,1.766,0,0,1-.063-.522V68.313h-.792v-.675h.792v-1.4h.765v1.4Z" fill="#1d1d1b"/><path d="M156.907,66.8v-.936h.765V66.8Zm.765.837v4.653h-.765V67.638Z" fill="#1d1d1b"/><path d="M158.751,69.011a2.177,2.177,0,0,1,.432-.774,2.038,2.038,0,0,1,.711-.517,2.6,2.6,0,0,1,1.949,0,2.053,2.053,0,0,1,.707.517,2.177,2.177,0,0,1,.432.774,3.106,3.106,0,0,1,.144.958,3.063,3.063,0,0,1-.144.954,2.177,2.177,0,0,1-.432.77,2,2,0,0,1-.707.513,2.664,2.664,0,0,1-1.949,0,1.987,1.987,0,0,1-.711-.513,2.177,2.177,0,0,1-.432-.77,3.063,3.063,0,0,1-.144-.954A3.106,3.106,0,0,1,158.751,69.011Zm.779,1.71a1.564,1.564,0,0,0,.311.549,1.338,1.338,0,0,0,.463.337,1.409,1.409,0,0,0,1.125,0,1.343,1.343,0,0,0,.463-.337,1.579,1.579,0,0,0,.311-.549,2.561,2.561,0,0,0,0-1.5,1.628,1.628,0,0,0-.311-.553,1.326,1.326,0,0,0-.463-.342,1.414,1.414,0,0,0-1.125,0,1.322,1.322,0,0,0-.463.342,1.612,1.612,0,0,0-.311.553,2.561,2.561,0,0,0,0,1.5Z" fill="#1d1d1b"/><path d="M164.745,67.638v.738h.018a1.611,1.611,0,0,1,1.512-.846,2.019,2.019,0,0,1,.765.126,1.257,1.257,0,0,1,.5.351,1.311,1.311,0,0,1,.266.536,2.891,2.891,0,0,1,.077.688v3.06h-.765v-3.15a.924.924,0,0,0-.252-.684.937.937,0,0,0-.693-.252,1.565,1.565,0,0,0-.607.108,1.142,1.142,0,0,0-.427.306,1.317,1.317,0,0,0-.257.463,1.9,1.9,0,0,0-.085.581v2.628h-.765V67.638Z" fill="#1d1d1b"/><path d="M169.614,71.251a.81.81,0,0,0,.283.279,1.276,1.276,0,0,0,.4.149,2.282,2.282,0,0,0,.455.045,2.788,2.788,0,0,0,.378-.027,1.382,1.382,0,0,0,.365-.1.684.684,0,0,0,.274-.211.566.566,0,0,0,.108-.355.51.51,0,0,0-.225-.45,1.911,1.911,0,0,0-.562-.248q-.337-.094-.733-.171a3.77,3.77,0,0,1-.733-.216,1.514,1.514,0,0,1-.562-.391,1.018,1.018,0,0,1-.225-.7,1.115,1.115,0,0,1,.158-.6,1.292,1.292,0,0,1,.4-.41,1.88,1.88,0,0,1,.558-.234,2.582,2.582,0,0,1,.617-.077,3.682,3.682,0,0,1,.729.068,1.689,1.689,0,0,1,.589.234,1.207,1.207,0,0,1,.409.45,1.708,1.708,0,0,1,.18.706h-.765a.733.733,0,0,0-.369-.612,1.142,1.142,0,0,0-.338-.13,1.742,1.742,0,0,0-.373-.041,2.269,2.269,0,0,0-.347.027,1.166,1.166,0,0,0-.319.095.645.645,0,0,0-.234.18.455.455,0,0,0-.09.292.43.43,0,0,0,.14.329,1.115,1.115,0,0,0,.355.216,3.1,3.1,0,0,0,.486.144q.27.059.54.122a5.743,5.743,0,0,1,.563.153,1.831,1.831,0,0,1,.486.238,1.166,1.166,0,0,1,.342.374,1.1,1.1,0,0,1,.13.558,1.3,1.3,0,0,1-.175.7,1.372,1.372,0,0,1-.459.45,1.924,1.924,0,0,1-.639.239,3.79,3.79,0,0,1-.707.067,3.289,3.289,0,0,1-.738-.081,1.808,1.808,0,0,1-.621-.266,1.35,1.35,0,0,1-.432-.486,1.689,1.689,0,0,1-.18-.733h.765A.857.857,0,0,0,169.614,71.251Z" fill="#1d1d1b"/><path d="M169.173,11.446l-.945-3.7h-.018l-.936,3.7h-.828l-1.494-4.653h.846l1.053,3.807h.018l.936-3.807h.837l.972,3.807h.018l1.044-3.807h.792l-1.485,4.653Z" fill="#007abf"/><path d="M175.491,11.149a2.112,2.112,0,0,1-1.314.4,2.389,2.389,0,0,1-.968-.18,1.911,1.911,0,0,1-.688-.5,2.137,2.137,0,0,1-.418-.774,3.709,3.709,0,0,1-.157-.981,2.8,2.8,0,0,1,.162-.972,2.337,2.337,0,0,1,.455-.765,2.063,2.063,0,0,1,.693-.5,2.115,2.115,0,0,1,.878-.18,1.91,1.91,0,0,1,1.03.257,2.046,2.046,0,0,1,.657.652,2.591,2.591,0,0,1,.342.864,3.718,3.718,0,0,1,.077.891h-3.483a1.844,1.844,0,0,0,.072.581,1.31,1.31,0,0,0,.261.486,1.292,1.292,0,0,0,.459.337,1.586,1.586,0,0,0,.657.126,1.324,1.324,0,0,0,.8-.225,1.087,1.087,0,0,0,.41-.684h.756A1.862,1.862,0,0,1,175.491,11.149Zm-.185-2.988a1.291,1.291,0,0,0-.693-.7,1.314,1.314,0,0,0-.527-.1,1.333,1.333,0,0,0-.535.1,1.236,1.236,0,0,0-.41.283,1.352,1.352,0,0,0-.27.419,1.6,1.6,0,0,0-.117.508h2.673A1.575,1.575,0,0,0,175.306,8.161Z" fill="#007abf"/><path d="M177.075,5.956V5.02h.765v.936Zm.765.837v4.653h-.765V6.793Z" fill="#007abf"/><path d="M182.52,12.76a2.127,2.127,0,0,1-1.638.567,3.174,3.174,0,0,1-.662-.072,2.032,2.032,0,0,1-.612-.234,1.423,1.423,0,0,1-.455-.423,1.2,1.2,0,0,1-.2-.639h.765a.564.564,0,0,0,.13.351.955.955,0,0,0,.3.234,1.451,1.451,0,0,0,.383.13,2.073,2.073,0,0,0,.4.041,1.418,1.418,0,0,0,.639-.13,1.2,1.2,0,0,0,.432-.36,1.485,1.485,0,0,0,.248-.553,3.108,3.108,0,0,0,.077-.711v-.306H182.3a1.285,1.285,0,0,1-.6.634,1.856,1.856,0,0,1-.851.2,2.049,2.049,0,0,1-.909-.189,1.9,1.9,0,0,1-.648-.508,2.157,2.157,0,0,1-.392-.747,3.085,3.085,0,0,1-.13-.9,3.519,3.519,0,0,1,.108-.85,2.314,2.314,0,0,1,.36-.792,1.976,1.976,0,0,1,.666-.585,2.073,2.073,0,0,1,1.017-.229,1.719,1.719,0,0,1,.81.194,1.36,1.36,0,0,1,.576.581h.009V6.793h.72V11.05A2.45,2.45,0,0,1,182.52,12.76Zm-.977-2.092a1.254,1.254,0,0,0,.428-.414,1.89,1.89,0,0,0,.238-.581,2.8,2.8,0,0,0,.077-.648,2.556,2.556,0,0,0-.072-.6,1.7,1.7,0,0,0-.229-.536,1.2,1.2,0,0,0-.41-.382,1.213,1.213,0,0,0-.612-.144,1.32,1.32,0,0,0-.63.14,1.223,1.223,0,0,0-.427.373,1.579,1.579,0,0,0-.243.54,2.64,2.64,0,0,0-.077.639,3.2,3.2,0,0,0,.063.63,1.788,1.788,0,0,0,.216.572,1.216,1.216,0,0,0,.4.414,1.169,1.169,0,0,0,.63.157A1.238,1.238,0,0,0,181.543,10.668Z" fill="#007abf"/><path d="M184.958,5.02V7.477h.018a1.024,1.024,0,0,1,.252-.364,1.433,1.433,0,0,1,.365-.243,1.875,1.875,0,0,1,.423-.139,2.118,2.118,0,0,1,.428-.045,2.019,2.019,0,0,1,.765.126,1.257,1.257,0,0,1,.5.351,1.311,1.311,0,0,1,.266.536,2.891,2.891,0,0,1,.077.688v3.06h-.765V8.3a.924.924,0,0,0-.252-.684.937.937,0,0,0-.693-.252,1.565,1.565,0,0,0-.607.108,1.142,1.142,0,0,0-.427.306,1.317,1.317,0,0,0-.257.463,1.9,1.9,0,0,0-.085.581v2.628h-.765V5.02Z" fill="#007abf"/><path d="M191.187,6.793v.675h-.927v2.889a.806.806,0,0,0,.022.216.219.219,0,0,0,.085.126.373.373,0,0,0,.176.059,2.586,2.586,0,0,0,.292.014h.352v.675H190.6a2.758,2.758,0,0,1-.509-.041.748.748,0,0,1-.342-.148.635.635,0,0,1-.193-.306,1.764,1.764,0,0,1-.063-.522V7.468H188.7V6.793h.792V5.4h.766v1.4Z" fill="#007abf"/><path d="M192.618,10.407a.819.819,0,0,0,.283.279,1.274,1.274,0,0,0,.4.149,2.274,2.274,0,0,0,.454.045,2.788,2.788,0,0,0,.378-.027,1.386,1.386,0,0,0,.365-.1.691.691,0,0,0,.274-.211.569.569,0,0,0,.107-.355.51.51,0,0,0-.225-.45,1.922,1.922,0,0,0-.562-.248c-.225-.063-.47-.12-.733-.171a3.75,3.75,0,0,1-.733-.216,1.506,1.506,0,0,1-.562-.391,1.016,1.016,0,0,1-.226-.7,1.111,1.111,0,0,1,.158-.6,1.286,1.286,0,0,1,.4-.41,1.883,1.883,0,0,1,.559-.234,2.578,2.578,0,0,1,.616-.077,3.691,3.691,0,0,1,.729.068,1.686,1.686,0,0,1,.589.234,1.2,1.2,0,0,1,.409.45,1.708,1.708,0,0,1,.181.706h-.766a.731.731,0,0,0-.368-.612,1.147,1.147,0,0,0-.338-.13,1.742,1.742,0,0,0-.373-.041,2.269,2.269,0,0,0-.347.027,1.166,1.166,0,0,0-.319.095.637.637,0,0,0-.234.18.452.452,0,0,0-.09.292.428.428,0,0,0,.14.329,1.109,1.109,0,0,0,.355.216,3.1,3.1,0,0,0,.485.144q.271.059.54.122a5.669,5.669,0,0,1,.563.153,1.834,1.834,0,0,1,.486.238,1.17,1.17,0,0,1,.342.374,1.1,1.1,0,0,1,.131.558,1.293,1.293,0,0,1-.176.7,1.367,1.367,0,0,1-.459.45,1.922,1.922,0,0,1-.639.239,3.792,3.792,0,0,1-.707.067,3.281,3.281,0,0,1-.737-.081,1.808,1.808,0,0,1-.621-.266,1.351,1.351,0,0,1-.433-.486,1.689,1.689,0,0,1-.18-.733h.765A.857.857,0,0,0,192.618,10.407Z" fill="#007abf"/><path d="M166.167,18.813v.63h.018a1.146,1.146,0,0,1,.594-.562,2.214,2.214,0,0,1,.891-.176,2.1,2.1,0,0,1,.94.2,1.912,1.912,0,0,1,.666.536,2.362,2.362,0,0,1,.4.778,3.185,3.185,0,0,1,.135.936,3.285,3.285,0,0,1-.131.936,2.2,2.2,0,0,1-.4.77,1.861,1.861,0,0,1-.666.518,2.16,2.16,0,0,1-.931.189,2.311,2.311,0,0,1-.383-.036,2.108,2.108,0,0,1-.418-.117,1.63,1.63,0,0,1-.392-.22,1.224,1.224,0,0,1-.31-.347h-.018v2.394H165.4V18.813Zm2.75,1.651a1.714,1.714,0,0,0-.261-.554,1.283,1.283,0,0,0-.45-.387,1.366,1.366,0,0,0-.644-.144,1.262,1.262,0,0,0-1.1.553,1.67,1.67,0,0,0-.248.563,2.722,2.722,0,0,0,0,1.3,1.64,1.64,0,0,0,.257.563,1.306,1.306,0,0,0,.454.392,1.425,1.425,0,0,0,.675.148,1.3,1.3,0,0,0,.662-.153,1.226,1.226,0,0,0,.427-.4,1.758,1.758,0,0,0,.234-.576A3.066,3.066,0,0,0,169,21.1,2.393,2.393,0,0,0,168.917,20.465Z" fill="#1d1d1b"/><path d="M174.834,23.448a1.083,1.083,0,0,1-.549.117.66.66,0,0,1-.473-.167.725.725,0,0,1-.175-.544,1.83,1.83,0,0,1-.733.544,2.429,2.429,0,0,1-.9.167,2.4,2.4,0,0,1-.6-.072,1.383,1.383,0,0,1-.491-.225,1.075,1.075,0,0,1-.329-.4,1.346,1.346,0,0,1-.121-.6,1.371,1.371,0,0,1,.135-.648,1.18,1.18,0,0,1,.355-.409,1.634,1.634,0,0,1,.5-.239q.283-.081.581-.135.315-.063.6-.095a3.329,3.329,0,0,0,.5-.09.829.829,0,0,0,.342-.171.418.418,0,0,0,.126-.329.763.763,0,0,0-.094-.4.65.65,0,0,0-.243-.234,1,1,0,0,0-.333-.108,2.506,2.506,0,0,0-.364-.027,1.617,1.617,0,0,0-.81.185.783.783,0,0,0-.351.7h-.765a1.657,1.657,0,0,1,.18-.729,1.365,1.365,0,0,1,.432-.481,1.812,1.812,0,0,1,.616-.266,3.272,3.272,0,0,1,.743-.081,4.317,4.317,0,0,1,.625.045,1.634,1.634,0,0,1,.563.184,1.075,1.075,0,0,1,.4.391,1.247,1.247,0,0,1,.153.655v2.389a1.786,1.786,0,0,0,.031.4c.021.084.091.125.211.125a.934.934,0,0,0,.234-.036Zm-1.242-2.385a.96.96,0,0,1-.378.157q-.234.049-.491.081t-.518.072a1.891,1.891,0,0,0-.468.13.848.848,0,0,0-.337.255.711.711,0,0,0-.131.452.621.621,0,0,0,.077.318.635.635,0,0,0,.2.21.83.83,0,0,0,.283.116,1.579,1.579,0,0,0,.342.036,1.828,1.828,0,0,0,.648-.1,1.373,1.373,0,0,0,.441-.26,1.034,1.034,0,0,0,.252-.34.857.857,0,0,0,.081-.345Z" fill="#1d1d1b"/><path d="M176.238,18.813v.981h.018a2.071,2.071,0,0,1,.684-.837,1.72,1.72,0,0,1,1.026-.252v.81a2.166,2.166,0,0,0-.783.126,1.238,1.238,0,0,0-.522.369,1.534,1.534,0,0,0-.288.589,3.183,3.183,0,0,0-.09.8v2.07h-.765V18.813Z" fill="#1d1d1b"/><path d="M182.664,23.448a1.083,1.083,0,0,1-.549.117.66.66,0,0,1-.473-.167.725.725,0,0,1-.175-.544,1.83,1.83,0,0,1-.733.544,2.429,2.429,0,0,1-.9.167,2.4,2.4,0,0,1-.6-.072,1.383,1.383,0,0,1-.491-.225,1.075,1.075,0,0,1-.329-.4,1.346,1.346,0,0,1-.121-.6,1.371,1.371,0,0,1,.135-.648,1.18,1.18,0,0,1,.355-.409,1.634,1.634,0,0,1,.5-.239q.283-.081.581-.135.315-.063.6-.095a3.329,3.329,0,0,0,.5-.09.829.829,0,0,0,.342-.171.418.418,0,0,0,.126-.329.763.763,0,0,0-.094-.4.65.65,0,0,0-.243-.234,1,1,0,0,0-.333-.108,2.506,2.506,0,0,0-.364-.027,1.617,1.617,0,0,0-.81.185.783.783,0,0,0-.351.7h-.765a1.657,1.657,0,0,1,.18-.729,1.365,1.365,0,0,1,.432-.481,1.812,1.812,0,0,1,.616-.266,3.272,3.272,0,0,1,.743-.081,4.317,4.317,0,0,1,.625.045,1.634,1.634,0,0,1,.563.184,1.075,1.075,0,0,1,.4.391,1.247,1.247,0,0,1,.153.655v2.389a1.786,1.786,0,0,0,.031.4c.021.084.091.125.211.125a.934.934,0,0,0,.234-.036Zm-1.242-2.385a.96.96,0,0,1-.378.157q-.234.049-.491.081t-.518.072a1.891,1.891,0,0,0-.468.13.848.848,0,0,0-.337.255.711.711,0,0,0-.131.452.621.621,0,0,0,.077.318.635.635,0,0,0,.2.21.83.83,0,0,0,.283.116,1.579,1.579,0,0,0,.342.036,1.828,1.828,0,0,0,.648-.1,1.373,1.373,0,0,0,.441-.26,1.034,1.034,0,0,0,.252-.34.857.857,0,0,0,.081-.345Z" fill="#1d1d1b"/><path d="M184.094,18.813V19.5h.018a1.813,1.813,0,0,1,2.286-.612,1.01,1.01,0,0,1,.5.612,1.624,1.624,0,0,1,.616-.585,1.743,1.743,0,0,1,.842-.207,2.441,2.441,0,0,1,.634.077,1.311,1.311,0,0,1,.486.239,1.071,1.071,0,0,1,.314.418,1.524,1.524,0,0,1,.113.616v3.411h-.766V20.415a2.132,2.132,0,0,0-.036-.405.815.815,0,0,0-.135-.329.668.668,0,0,0-.274-.22,1.089,1.089,0,0,0-.455-.081,1.205,1.205,0,0,0-.891.324,1.17,1.17,0,0,0-.324.864v2.9h-.765V20.415a1.988,1.988,0,0,0-.041-.414.88.88,0,0,0-.14-.329.651.651,0,0,0-.265-.216,1.027,1.027,0,0,0-.428-.077,1.142,1.142,0,0,0-.571.135,1.294,1.294,0,0,0-.6.716,1.1,1.1,0,0,0-.068.337v2.9h-.765V18.813Z" fill="#1d1d1b"/><path d="M194.346,23.169a2.113,2.113,0,0,1-1.314.4,2.391,2.391,0,0,1-.968-.18,1.92,1.92,0,0,1-.688-.5,2.143,2.143,0,0,1-.418-.774,3.69,3.69,0,0,1-.157-.981,2.814,2.814,0,0,1,.161-.972,2.33,2.33,0,0,1,.455-.765,2.061,2.061,0,0,1,.692-.5,2.117,2.117,0,0,1,.878-.18,1.908,1.908,0,0,1,1.03.257,2.036,2.036,0,0,1,.657.652,2.57,2.57,0,0,1,.342.864,3.694,3.694,0,0,1,.077.891H191.61a1.83,1.83,0,0,0,.072.581,1.31,1.31,0,0,0,.261.486,1.288,1.288,0,0,0,.459.337,1.585,1.585,0,0,0,.657.126,1.322,1.322,0,0,0,.8-.225,1.09,1.09,0,0,0,.41-.684h.756A1.864,1.864,0,0,1,194.346,23.169Zm-.185-2.988a1.353,1.353,0,0,0-1.755-.7,1.243,1.243,0,0,0-.41.283,1.341,1.341,0,0,0-.27.419,1.571,1.571,0,0,0-.117.508h2.673A1.574,1.574,0,0,0,194.162,20.181Z" fill="#1d1d1b"/><path d="M197.874,18.813v.675h-.927v2.889a.806.806,0,0,0,.022.216.219.219,0,0,0,.085.126.373.373,0,0,0,.176.059,2.586,2.586,0,0,0,.292.014h.352v.675h-.585a2.758,2.758,0,0,1-.509-.041.748.748,0,0,1-.342-.148.635.635,0,0,1-.193-.306,1.764,1.764,0,0,1-.063-.522V19.488h-.792v-.675h.792v-1.4h.766v1.4Z" fill="#1d1d1b"/><path d="M202.013,23.169a2.11,2.11,0,0,1-1.313.4,2.387,2.387,0,0,1-.968-.18,1.9,1.9,0,0,1-.688-.5,2.13,2.13,0,0,1-.419-.774,3.729,3.729,0,0,1-.157-.981,2.791,2.791,0,0,1,.162-.972,2.345,2.345,0,0,1,.454-.765,2.065,2.065,0,0,1,.693-.5,2.114,2.114,0,0,1,.878-.18,1.912,1.912,0,0,1,1.03.257,2.056,2.056,0,0,1,.657.652,2.611,2.611,0,0,1,.342.864,3.742,3.742,0,0,1,.076.891h-3.483a1.858,1.858,0,0,0,.072.581,1.271,1.271,0,0,0,.72.824,1.588,1.588,0,0,0,.657.126,1.326,1.326,0,0,0,.8-.225,1.084,1.084,0,0,0,.409-.684h.756A1.86,1.86,0,0,1,202.013,23.169Zm-.185-2.988a1.288,1.288,0,0,0-.692-.7,1.315,1.315,0,0,0-.527-.1,1.336,1.336,0,0,0-.535.1,1.229,1.229,0,0,0-.409.283,1.362,1.362,0,0,0-.271.419,1.624,1.624,0,0,0-.117.508h2.674A1.576,1.576,0,0,0,201.829,20.181Z" fill="#1d1d1b"/><path d="M204.246,18.813v.981h.018a2.072,2.072,0,0,1,.685-.837,1.717,1.717,0,0,1,1.025-.252v.81a2.169,2.169,0,0,0-.783.126,1.236,1.236,0,0,0-.521.369,1.527,1.527,0,0,0-.288.589,3.16,3.16,0,0,0-.09.8v2.07h-.766V18.813Z" fill="#1d1d1b"/><path d="M207.134,22.427a.819.819,0,0,0,.283.279,1.274,1.274,0,0,0,.4.149,2.274,2.274,0,0,0,.454.045,2.788,2.788,0,0,0,.378-.027,1.386,1.386,0,0,0,.365-.1.691.691,0,0,0,.274-.211.569.569,0,0,0,.107-.355.51.51,0,0,0-.225-.45,1.922,1.922,0,0,0-.562-.248c-.225-.063-.47-.12-.733-.171a3.75,3.75,0,0,1-.733-.216,1.506,1.506,0,0,1-.562-.391,1.016,1.016,0,0,1-.226-.7,1.111,1.111,0,0,1,.158-.6,1.286,1.286,0,0,1,.4-.41,1.883,1.883,0,0,1,.559-.234,2.578,2.578,0,0,1,.616-.077,3.691,3.691,0,0,1,.729.068,1.686,1.686,0,0,1,.589.234,1.2,1.2,0,0,1,.409.45,1.708,1.708,0,0,1,.181.706h-.766a.731.731,0,0,0-.368-.612,1.147,1.147,0,0,0-.338-.13,1.742,1.742,0,0,0-.373-.041,2.269,2.269,0,0,0-.347.027,1.166,1.166,0,0,0-.319.095.637.637,0,0,0-.234.18.452.452,0,0,0-.09.292.428.428,0,0,0,.14.329,1.109,1.109,0,0,0,.355.216,3.1,3.1,0,0,0,.485.144q.271.059.54.122a5.669,5.669,0,0,1,.563.153,1.834,1.834,0,0,1,.486.238,1.17,1.17,0,0,1,.342.374,1.1,1.1,0,0,1,.131.558,1.293,1.293,0,0,1-.176.7,1.367,1.367,0,0,1-.459.45,1.922,1.922,0,0,1-.639.239,3.792,3.792,0,0,1-.707.067,3.281,3.281,0,0,1-.737-.081,1.808,1.808,0,0,1-.621-.266,1.351,1.351,0,0,1-.433-.486,1.689,1.689,0,0,1-.18-.733h.765A.857.857,0,0,0,207.134,22.427Z" fill="#1d1d1b"/><circle cx="55.019" cy="15.806" r="15.806" fill="#007abf"/><circle cx="143.862" cy="15.806" r="15.806" fill="#007abf"/><circle cx="99.44" cy="59.955" r="15.806" fill="#007abf"/><path d="M54.521,12.931a3.286,3.286,0,0,1,.578.813,10.864,10.864,0,0,1,.461,1.477l.688-1.031a4.325,4.325,0,0,1,.664-.715,2.718,2.718,0,0,1,.688-.465,1.071,1.071,0,0,1,.414-.078.77.77,0,0,1,.535.18.568.568,0,0,1,.2.438.548.548,0,0,1-.117.406.729.729,0,0,1-.5.2,1,1,0,0,1-.352-.07,1.983,1.983,0,0,0-.492-.125.749.749,0,0,0-.445.219,6.189,6.189,0,0,0-1.156,1.57l.641,2.688a2.392,2.392,0,0,0,.25.738.276.276,0,0,0,.2.121.644.644,0,0,0,.383-.18,3.061,3.061,0,0,0,.734-.937l.273.141a4.894,4.894,0,0,1-1.25,1.531,1.272,1.272,0,0,1-.727.344.777.777,0,0,1-.7-.492,19.168,19.168,0,0,1-.68-2.625A11.1,11.1,0,0,1,52.865,19.8a1.476,1.476,0,0,1-.922.391.846.846,0,0,1-.57-.227.594.594,0,0,1-.187-.461.585.585,0,0,1,.172-.43.575.575,0,0,1,.422-.172.827.827,0,0,1,.531.25.574.574,0,0,0,.313.18.427.427,0,0,0,.242-.125,5.922,5.922,0,0,0,1-1.281,12.593,12.593,0,0,0,.828-1.422q-.485-1.9-.523-2.008a1.471,1.471,0,0,0-.469-.719,1.437,1.437,0,0,0-.852-.211c-.12,0-.258.005-.414.016V13.3Z" fill="#fff"/><path d="M98.452,56.535a3.38,3.38,0,0,1,.367.848,11.755,11.755,0,0,1,.2,1.551l.344,3.844q.469-.562,1.359-1.781.429-.593,1.063-1.617a5.543,5.543,0,0,0,.469-.875.726.726,0,0,0,.047-.258.192.192,0,0,0-.055-.141.858.858,0,0,0-.285-.129.769.769,0,0,1-.383-.273.732.732,0,0,1-.152-.457.714.714,0,0,1,.188-.516.624.624,0,0,1,.469-.2.744.744,0,0,1,.586.285,1.178,1.178,0,0,1,.242.785,3.076,3.076,0,0,1-.422,1.41,23.073,23.073,0,0,1-1.625,2.434q-1.2,1.641-2.914,3.578a9.694,9.694,0,0,1-1.75,1.684,1.975,1.975,0,0,1-.977.348.628.628,0,0,1-.609-.609.765.765,0,0,1,.254-.555.773.773,0,0,1,.551-.25.441.441,0,0,1,.258.07.491.491,0,0,1,.137.223.8.8,0,0,0,.137.246.128.128,0,0,0,.094.039.39.39,0,0,0,.164-.078,5.748,5.748,0,0,0,1-.844,13.076,13.076,0,0,0,1.109-1.25L97.881,59.1a3.451,3.451,0,0,0-.328-1.492.9.9,0,0,0-.734-.266q-.164,0-.586.047l-.07-.289Z" fill="#fff"/><path d="M145.509,12.931l.539,5.859A20.809,20.809,0,0,0,148.22,15.8a2.871,2.871,0,0,0,.477-1.187.594.594,0,0,0-.078-.3.72.72,0,0,0-.246-.207.9.9,0,0,1-.3-.281.59.59,0,0,1-.086-.309.54.54,0,0,1,.18-.41.648.648,0,0,1,.461-.168.716.716,0,0,1,.543.238.9.9,0,0,1,.223.637,2.381,2.381,0,0,1-.117.758,8.9,8.9,0,0,1-.914,1.734,28.6,28.6,0,0,1-1.707,2.363q-.879,1.09-1.309,1.527h-.289l-.508-5.406-3.227,5.406h-.344a43.418,43.418,0,0,0-.336-5.266,1.834,1.834,0,0,0-.391-1.055.853.853,0,0,0-.594-.18,4.537,4.537,0,0,0-.578.047v-.281l2.242-.523a15.03,15.03,0,0,1,.609,4.008q.047,1.024.078,1.289l3.211-5.3Z" fill="#fff"/><line x1="66.659" y1="26.582" x2="85.172" y2="47.035" fill="none" stroke="#1d1d1b" stroke-miterlimit="10" stroke-width="0.5"/><polygon points="82.856 47.237 84.757 46.577 85.602 44.752 87.175 49.248 82.856 47.237" fill="#1d1d1b"/><line x1="131.946" y1="26.582" x2="113.433" y2="47.035" fill="none" stroke="#1d1d1b" stroke-miterlimit="10" stroke-width="0.5"/><polygon points="113.003 44.752 113.848 46.577 115.748 47.237 111.43 49.248 113.003 44.752" fill="#1d1d1b"/></svg>